<?xml version="1.0" encoding="utf-8"?>
<!-- Generator: Adobe Illustrator 21.0.2, SVG Export Plug-In . SVG Version: 6.00 Build 0)  -->
<svg version="1.1" id="Layer_1" xmlns="http://www.w3.org/2000/svg" xmlns:xlink="http://www.w3.org/1999/xlink" x="0px" y="0px"
	 viewBox="0 0 320 320" style="enable-background:new 0 0 320 320;" xml:space="preserve">
<g>
	<path d="M255.4,165.1c0.8-3.4,1.3-6.2,1.3-9.1c0-11.5-7.7-20.7-20.9-20.7c-14.3,0-25.7,10.7-27.9,24.6
		c-2.3,14.8,6.7,24.6,20.7,24.6c11.1,0,20.4-6.2,25.1-15.7h-16.9c-2.1,2.2-4.9,2.8-7.4,2.7c-4.9-0.1-7.2-3-7.2-6.6h33.2V165.1z
		 M234.9,147.8c4.3,0,7.2,2.7,7.1,6.8h-17.4C226.3,150.6,230.2,147.8,234.9,147.8z"/>
	<path d="M291.3,135.6c-5.8,0-10.7,4.8-10.7,10.6c0,5.9,4.8,10.7,10.7,10.7c5.9,0,10.7-4.8,10.7-10.7
		C302.1,140.4,297.2,135.6,291.3,135.6z"/>
	<path d="M191,135.4c-5.4,0-11.9,3.2-15,7.5l1.8-6.3h-15.2l-8.3,46.9h16.3l4.7-26.6c0.8-4.4,4.2-7.4,8.3-7.4c4,0,5.8,3.2,5.1,7.4
		l-4.7,26.6h16.3l5.1-28.8C207.5,142.9,201.7,135.4,191,135.4z"/>
	<polygon points="22.7,136.6 65.6,136.6 62.9,151.7 49.9,151.7 44.3,183.5 28,183.5 33.6,151.7 20,151.7 	"/>
	<path d="M69.3,136.6h16.3l-4.6,26c-0.8,4.5,1.3,7.2,5.2,7.2c4.1,0,7.2-2.8,8-7.2l4.6-26.1h16.3l-4.4,25c-2.7,15.7-12.9,23-26.6,23
		c-13.9,0-22-7.6-19.2-23.1L69.3,136.6z"/>
	<polygon points="111.2,183.5 127.5,183.5 135.8,136.6 119.5,136.6 	"/>
	<path d="M146.6,135.6c-5.8,0-10.7,4.8-10.7,10.6c0,5.9,4.8,10.7,10.7,10.7s10.7-4.8,10.7-10.7C157.3,140.4,152.5,135.6,146.6,135.6
		z"/>
	<polygon points="255.9,183.5 272.2,183.5 280.4,136.6 264.1,136.6 	"/>
</g>
</svg>
